<?xml version="1.0" encoding="utf-8"?>
<!-- Generated by Mocodo 4.1.2 -->
<svg width="298" height="263" viewBox="0 0 298 263" xmlns="http://www.w3.org/2000/svg">
<rect x="0" y="0" width="298" height="263" fill="#f5f5f5" stroke="none" stroke-width="0"/>

<!-- Association WRITE -->
<g>
	<line x1="57" y1="85" x2="161" y2="85" stroke="#bf812d" stroke-width="2"/>
	<line x1="253" y1="85" x2="161" y2="85" stroke="#bf812d" stroke-width="2"/>
	<polygon points="217 85 205 91 209 85 205 79" fill="#bf812d" stroke-width="0"/>
	<g>
		<path d="M171 60 a14 14 90 0 1 14 14 V85 h-48 V74 a14 14 90 0 1 14 -14" fill="#dfc27d" stroke="#dfc27d" stroke-width="0"/>
		<path d="M185 85 v11 a14 14 90 0 1 -14 14 H151 a14 14 90 0 1 -14 -14 V85 H48" fill="#f6e8c3" stroke="#f6e8c3" stroke-width="0"/>
		<rect x="137" y="60" width="48" height="50" fill="none" rx="14" stroke="#bf812d" stroke-width="2"/>
		<line x1="137" y1="85" x2="185" y2="85" stroke="#bf812d" stroke-width="1"/>
		<text x="145" y="77.75" fill="#000000" font-family="Verdana" font-size="12">Write</text>
	</g>
	<text x="110" y="102" fill="#01665e" font-family="Verdana" font-size="12">0,N</text>
	<text x="191" y="102" fill="#01665e" font-family="Verdana" font-size="12">1,1</text>
</g>

<!-- Association ADD -->
<g>
	<line x1="161" y1="220" x2="57" y2="220" stroke="#bf812d" stroke-width="2"/>
	<polygon points="110 220 98 226 102 220 98 214" fill="#bf812d" stroke-width="0"/>
	<line x1="57" y1="85" x2="57" y2="220" stroke="#bf812d" stroke-width="2"/>
	<g>
		<path d="M62 195 a14 14 90 0 1 14 14 V220 h-38 V209 a14 14 90 0 1 14 -14" fill="#dfc27d" stroke="#dfc27d" stroke-width="0"/>
		<path d="M76 220 v11 a14 14 90 0 1 -14 14 H52 a14 14 90 0 1 -14 -14 V220 H38" fill="#f6e8c3" stroke="#f6e8c3" stroke-width="0"/>
		<rect x="38" y="195" width="38" height="50" fill="none" rx="14" stroke="#bf812d" stroke-width="2"/>
		<line x1="38" y1="220" x2="76" y2="220" stroke="#bf812d" stroke-width="1"/>
		<text x="45" y="212.75" fill="#000000" font-family="Verdana" font-size="12">Add</text>
	</g>
	<text x="83" y="237" fill="#01665e" font-family="Verdana" font-size="12">0,N</text>
	<text x="62" y="178" fill="#01665e" font-family="Verdana" font-size="12">0,1</text>
</g>

<!-- Entity USERS -->
<g>
	<g>
		<rect x="9" y="9" width="96" height="25" fill="#80cdc1" stroke="none" stroke-width="0" opacity="1"/>
		<rect x="9" y="34" width="96" height="127" fill="#c7eae5" stroke="none" stroke-width="0" opacity="1"/>
		<rect x="9" y="9" width="96" height="152" fill="none" stroke="#35978f" stroke-width="2" opacity="1"/>
		<line x1="9" y1="34" x2="105" y2="34" stroke="#35978f" stroke-width="1"/>
	</g>
	<text x="40" y="26.75" fill="#000000" font-family="Verdana" font-size="12">Users</text>
	<text x="14" y="51.8" fill="#000000" font-family="Verdana" font-size="12">num_user</text>
	<line x1="14" y1="54" x2="76" y2="54" stroke="#000000" stroke-width="1"/>
	<text x="14" y="68.8" fill="#000000" font-family="Verdana" font-size="12">name</text>
	<text x="14" y="85.8" fill="#000000" font-family="Verdana" font-size="12">email</text>
	<text x="14" y="102.8" fill="#000000" font-family="Verdana" font-size="12">isAdmin</text>
	<text x="14" y="119.8" fill="#000000" font-family="Verdana" font-size="12">contactDetails</text>
	<text x="14" y="136.8" fill="#000000" font-family="Verdana" font-size="12">address</text>
	<text x="14" y="153.8" fill="#000000" font-family="Verdana" font-size="12">phoneNumber</text>
</g>

<!-- Entity POSTS -->
<g>
	<g>
		<rect x="217" y="43" width="72" height="25" fill="#80cdc1" stroke="none" stroke-width="0" opacity="1"/>
		<rect x="217" y="68" width="72" height="59" fill="#c7eae5" stroke="none" stroke-width="0" opacity="1"/>
		<rect x="217" y="43" width="72" height="84" fill="none" stroke="#35978f" stroke-width="2" opacity="1"/>
		<line x1="217" y1="68" x2="289" y2="68" stroke="#35978f" stroke-width="1"/>
	</g>
	<text x="237" y="60.75" fill="#000000" font-family="Verdana" font-size="12">Posts</text>
	<text x="222" y="85.8" fill="#000000" font-family="Verdana" font-size="12">num_post</text>
	<line x1="222" y1="88" x2="283" y2="88" stroke="#000000" stroke-width="1"/>
	<text x="222" y="102.8" fill="#000000" font-family="Verdana" font-size="12">title</text>
	<text x="222" y="119.8" fill="#000000" font-family="Verdana" font-size="12">excerpt</text>
</g>

<!-- Entity COMMENTS -->
<g>
	<g>
		<rect x="110" y="186" width="102" height="25" fill="#80cdc1" stroke="none" stroke-width="0" opacity="1"/>
		<rect x="110" y="211" width="102" height="43" fill="#c7eae5" stroke="none" stroke-width="0" opacity="1"/>
		<rect x="110" y="186" width="102" height="68" fill="none" stroke="#35978f" stroke-width="2" opacity="1"/>
		<line x1="110" y1="211" x2="212" y2="211" stroke="#35978f" stroke-width="1"/>
	</g>
	<text x="128" y="203.75" fill="#000000" font-family="Verdana" font-size="12">Comments</text>
	<text x="115" y="228.8" fill="#000000" font-family="Verdana" font-size="12">num_comment</text>
	<line x1="115" y1="231" x2="207" y2="231" stroke="#000000" stroke-width="1"/>
	<text x="115" y="245.8" fill="#000000" font-family="Verdana" font-size="12">content</text>
</g>
</svg>